<svg preserveAspectRatio="none" width="100%" height="100%" overflow="visible" style="display: block;" viewBox="0 0 10.8 12" fill="none" xmlns="http://www.w3.org/2000/svg">
<path id="Vector" d="M9.6 1.2H7.092C6.84 0.504 6.18 0 5.4 0C4.62 0 3.96 0.504 3.708 1.2H1.2C0.54 1.2 0 1.74 0 2.4V10.8C0 11.46 0.54 12 1.2 12H9.6C10.26 12 10.8 11.46 10.8 10.8V2.4C10.8 1.74 10.26 1.2 9.6 1.2ZM5.4 1.2C5.73 1.2 6 1.47 6 1.8C6 2.13 5.73 2.4 5.4 2.4C5.07 2.4 4.8 2.13 4.8 1.8C4.8 1.47 5.07 1.2 5.4 1.2ZM5.4 3.6C6.396 3.6 7.2 4.404 7.2 5.4C7.2 6.396 6.396 7.2 5.4 7.2C4.404 7.2 3.6 6.396 3.6 5.4C3.6 4.404 4.404 3.6 5.4 3.6ZM9 10.8H1.8V9.96C1.8 8.76 4.2 8.1 5.4 8.1C6.6 8.1 9 8.76 9 9.96V10.8Z" fill="var(--fill-0, #DDE5EE)"/>
</svg>
