<svg preserveAspectRatio="none" width="100%" height="100%" overflow="visible" style="display: block;" viewBox="0 0 12.3333 10" fill="none" xmlns="http://www.w3.org/2000/svg">
<path id="Vector" d="M1 4C0.446667 4 0 4.44667 0 5C0 5.55333 0.446667 6 1 6C1.55333 6 2 5.55333 2 5C2 4.44667 1.55333 4 1 4ZM1 0C0.446667 0 0 0.446667 0 1C0 1.55333 0.446667 2 1 2C1.55333 2 2 1.55333 2 1C2 0.446667 1.55333 0 1 0ZM1 8C0.446667 8 0 8.45333 0 9C0 9.54667 0.453333 10 1 10C1.54667 10 2 9.54667 2 9C2 8.45333 1.55333 8 1 8ZM3 9.66667H12.3333V8.33333H3V9.66667ZM3 5.66667H12.3333V4.33333H3V5.66667ZM3 0.333333V1.66667H12.3333V0.333333H3Z" fill="var(--fill-0, #DDE5EE)"/>
</svg>
