<svg preserveAspectRatio="none" width="100%" height="100%" overflow="visible" style="display: block;" viewBox="0 0 36 28.5015" fill="none" xmlns="http://www.w3.org/2000/svg">
<path id="Profile Icon" d="M36 23.991V28.5015H0V24.0075C2.09392 21.2092 4.81186 18.938 7.93768 17.3746C11.0635 15.8111 14.511 14.9986 18.006 15.0015C25.362 15.0015 31.896 18.5325 36 23.991ZM24.003 6C24.003 7.5913 23.3709 9.11742 22.2456 10.2426C21.1204 11.3679 19.5943 12 18.003 12C16.4117 12 14.8856 11.3679 13.7604 10.2426C12.6351 9.11742 12.003 7.5913 12.003 6C12.003 4.4087 12.6351 2.88258 13.7604 1.75736C14.8856 0.632141 16.4117 0 18.003 0C19.5943 0 21.1204 0.632141 22.2456 1.75736C23.3709 2.88258 24.003 4.4087 24.003 6Z" fill="var(--fill-0, #D9D9D9)"/>
</svg>
