<svg preserveAspectRatio="none" width="100%" height="100%" overflow="visible" style="display: block;" viewBox="0 0 16 16" fill="none" xmlns="http://www.w3.org/2000/svg">
<g id="Frame 427322856">
<path id="Vector" d="M15.5332 2.08447C15.4055 0.806063 14.3176 -0.12111 13.1033 0.012872C11.889 0.147319 11.0083 1.29268 11.1356 2.57109C11.1714 2.93116 11.2836 3.26379 11.4537 3.55222L8.72993 5.9411C8.64509 5.86062 8.55539 5.78572 8.46259 5.71547L9.59073 3.40522C9.77412 3.41266 9.96148 3.36893 10.1338 3.26844C10.6367 2.97489 10.8187 2.30731 10.5399 1.7779C10.2611 1.24848 9.62697 1.05681 9.1241 1.35036C8.62123 1.64391 8.43917 2.3115 8.718 2.84091C8.74408 2.89022 8.7728 2.93675 8.80461 2.98001L7.67736 5.28934C7.36583 5.17675 7.03176 5.11441 6.684 5.11441C6.21162 5.11441 5.76399 5.22746 5.36408 5.42936L3.31549 2.20682C3.46927 1.98445 3.5603 1.71091 3.5603 1.41456C3.5603 0.67022 2.98717 0.0668369 2.28015 0.0668369C1.57313 0.0668369 1 0.67022 1 1.41456C1 2.15891 1.57313 2.76229 2.28015 2.76229C2.38399 2.76229 2.48474 2.7488 2.58107 2.72461L4.63055 5.94808C4.00969 6.5389 3.61907 7.39304 3.61907 8.34161C3.61907 8.87893 3.745 9.38555 3.96639 9.83122L2.52407 10.9263C2.39857 10.8649 2.2585 10.8319 2.11046 10.837C1.61069 10.8552 1.21962 11.2966 1.23729 11.8228C1.25497 12.349 1.67388 12.7607 2.17365 12.7421C2.67343 12.7235 3.0645 12.2824 3.04682 11.7563C3.04594 11.7307 3.04329 11.7056 3.04064 11.6809L4.48428 10.5849C5.04194 11.1906 5.82187 11.5679 6.684 11.5679C6.80154 11.5679 6.91731 11.56 7.03132 11.5465L7.66189 14.0605C7.52093 14.1842 7.40913 14.3489 7.34462 14.5452C7.15726 15.1184 7.44669 15.7427 7.99066 15.94C8.53506 16.1372 9.12808 15.8325 9.31544 15.2598C9.5028 14.6867 9.21336 14.0624 8.6694 13.8651C8.61858 13.8465 8.56732 13.8325 8.51606 13.8228L7.88549 11.3092C8.98004 10.8161 9.74893 9.67119 9.74893 8.34114C9.74893 7.7238 9.58322 7.14647 9.29599 6.65521L12.0613 4.23004C12.4838 4.5436 13.0109 4.70363 13.5651 4.64222C14.7794 4.50777 15.6605 3.36288 15.5332 2.08447ZM6.68444 10.1727C5.7251 10.1727 4.94517 9.35112 4.94517 8.34114C4.94517 7.33116 5.72554 6.51006 6.68444 6.51006C7.64333 6.51006 8.42371 7.33163 8.42371 8.34114C8.42371 9.35066 7.64333 10.1727 6.68444 10.1727Z" fill="var(--fill-0, #002496)"/>
</g>
</svg>
