<svg preserveAspectRatio="none" width="100%" height="100%" overflow="visible" style="display: block;" viewBox="0 0 14.575 14.575" fill="none" xmlns="http://www.w3.org/2000/svg">
<path id="Vector" d="M5.41699 0.5C8.13237 0.500176 10.333 2.70158 10.333 5.41699C10.3329 6.63427 9.88723 7.75339 9.14551 8.61621L8.90039 8.90039L8.61621 9.14551C7.75339 9.88723 6.63427 10.3329 5.41699 10.333C2.70158 10.333 0.500176 8.13237 0.5 5.41699C0.5 2.70147 2.70147 0.5 5.41699 0.5ZM5.41699 1.16699C3.06585 1.16699 1.16699 3.06585 1.16699 5.41699C1.16717 7.76798 3.06596 9.66699 5.41699 9.66699C7.76788 9.66682 9.66682 7.76788 9.66699 5.41699C9.66699 3.06596 7.76798 1.16717 5.41699 1.16699ZM9.66699 9.66699H10.21L13.8672 13.333L13.333 13.8672L9.66699 10.209V9.66699Z" fill="var(--fill-0, #1A1A1A)" stroke="var(--stroke-0, #333F48)"/>
</svg>
