<svg preserveAspectRatio="none" width="100%" height="100%" overflow="visible" style="display: block;" viewBox="0 0 18.3333 13.3333" fill="none" xmlns="http://www.w3.org/2000/svg">
<path id="Vector" d="M15.8333 3.33333H13.3333V0H1.66667C0.75 0 0 0.75 0 1.66667V10.8333H1.66667C1.66667 12.2167 2.78333 13.3333 4.16667 13.3333C5.55 13.3333 6.66667 12.2167 6.66667 10.8333H11.6667C11.6667 12.2167 12.7833 13.3333 14.1667 13.3333C15.55 13.3333 16.6667 12.2167 16.6667 10.8333H18.3333V6.66667L15.8333 3.33333ZM15.4167 4.58333L17.05 6.66667H13.3333V4.58333H15.4167ZM4.16667 11.6667C3.70833 11.6667 3.33333 11.2917 3.33333 10.8333C3.33333 10.375 3.70833 10 4.16667 10C4.625 10 5 10.375 5 10.8333C5 11.2917 4.625 11.6667 4.16667 11.6667ZM6.01667 9.16667C5.55833 8.65833 4.90833 8.33333 4.16667 8.33333C3.425 8.33333 2.775 8.65833 2.31667 9.16667H1.66667V1.66667H11.6667V9.16667H6.01667ZM14.1667 11.6667C13.7083 11.6667 13.3333 11.2917 13.3333 10.8333C13.3333 10.375 13.7083 10 14.1667 10C14.625 10 15 10.375 15 10.8333C15 11.2917 14.625 11.6667 14.1667 11.6667Z" fill="var(--fill-0, white)"/>
</svg>
