<svg preserveAspectRatio="none" width="100%" height="100%" overflow="visible" style="display: block;" viewBox="0 0 14.5455 16" fill="none" xmlns="http://www.w3.org/2000/svg">
<path id="Vector" d="M14.5332 2.08447C14.4055 0.806063 13.3176 -0.12111 12.1033 0.012872C10.889 0.147319 10.0083 1.29268 10.1356 2.57109C10.1714 2.93116 10.2836 3.26379 10.4537 3.55222L7.72994 5.9411C7.64509 5.86062 7.55539 5.78572 7.46259 5.71547L8.59073 3.40522C8.77412 3.41266 8.96148 3.36893 9.13381 3.26844C9.63668 2.97489 9.81874 2.30731 9.53991 1.7779C9.26107 1.24848 8.62697 1.05681 8.1241 1.35036C7.62123 1.64391 7.43917 2.3115 7.718 2.84091C7.74408 2.89022 7.7728 2.93675 7.80461 2.98001L6.67736 5.28934C6.36583 5.17675 6.03176 5.11442 5.684 5.11442C5.21162 5.11442 4.76399 5.22746 4.36408 5.42937L2.31549 2.20682C2.46927 1.98445 2.5603 1.71091 2.5603 1.41456C2.5603 0.67022 1.98717 0.0668369 1.28015 0.0668369C0.573128 0.0668369 0 0.67022 0 1.41456C0 2.15891 0.573128 2.76229 1.28015 2.76229C1.38399 2.76229 1.48474 2.7488 1.58107 2.72461L3.63055 5.94808C3.00969 6.5389 2.61907 7.39304 2.61907 8.34161C2.61907 8.87893 2.745 9.38555 2.96639 9.83123L1.52407 10.9263C1.39857 10.8649 1.2585 10.8319 1.11046 10.837C0.610688 10.8552 0.219618 11.2967 0.237293 11.8228C0.254969 12.349 0.673878 12.7607 1.17365 12.7421C1.67343 12.7235 2.0645 12.2824 2.04682 11.7563C2.04594 11.7307 2.04329 11.7056 2.04064 11.6809L3.48428 10.5849C4.04194 11.1906 4.82187 11.5679 5.684 11.5679C5.80154 11.5679 5.91731 11.56 6.03132 11.5465L6.66189 14.0605C6.52093 14.1842 6.40913 14.3489 6.34462 14.5452C6.15726 15.1184 6.44669 15.7427 6.99066 15.94C7.53506 16.1372 8.12808 15.8325 8.31544 15.2598C8.5028 14.6867 8.21336 14.0624 7.6694 13.8651C7.61858 13.8465 7.56732 13.8325 7.51606 13.8228L6.88549 11.3092C7.98004 10.8161 8.74893 9.67119 8.74893 8.34114C8.74893 7.7238 8.58322 7.14647 8.29599 6.65521L11.0613 4.23004C11.4838 4.5436 12.0109 4.70363 12.5651 4.64222C13.7794 4.50778 14.6605 3.36288 14.5332 2.08447ZM5.68444 10.1727C4.7251 10.1727 3.94517 9.35112 3.94517 8.34114C3.94517 7.33116 4.72554 6.51006 5.68444 6.51006C6.64333 6.51006 7.42371 7.33163 7.42371 8.34114C7.42371 9.35066 6.64333 10.1727 5.68444 10.1727Z" fill="var(--fill-0, #5C6E72)"/>
</svg>
